<svg xmlns="http://www.w3.org/2000/svg" viewBox="0 0 32 32">
  <rect width="32" height="32" rx="7" fill="#09111d"/>
  <path d="M7 9a3 3 0 0 1 3-3h12a3 3 0 0 1 3 3v10a3 3 0 0 1-3 3h-3.5l-4 4v-4H10a3 3 0 0 1-3-3V9z" fill="#6f82ff"/>
  <path d="M10 9h12a3 3 0 0 1 3 3v1.8c0 1.3-1 2.2-2.2 2.2H12.2A2.2 2.2 0 0 1 10 13.8V9z" fill="#9ba8ff" opacity="0.42"/>
  <circle cx="12" cy="14" r="1.5" fill="#f3f6fc"/>
  <circle cx="16" cy="14" r="1.5" fill="#f3f6fc"/>
  <circle cx="20" cy="14" r="1.5" fill="#f3f6fc"/>
</svg>
